<svg id="Layer_1" data-name="Layer 1" xmlns="http://www.w3.org/2000/svg" viewBox="0 0 96 96"><path d="M62.15,16a1,1,0,0,1-.95-.69L60,11.76a3.07,3.07,0,0,1,2-3.87L79.54,2.15a3.08,3.08,0,0,1,3.86,2l1.16,3.55a1,1,0,0,1-.06.76,1,1,0,0,1-.58.5L62.46,16A1.06,1.06,0,0,1,62.15,16ZM80.49,4a1.26,1.26,0,0,0-.33,0L62.62,9.79a1.07,1.07,0,0,0-.68,1.34l.85,2.6,19.56-6.4-.85-2.6A1.08,1.08,0,0,0,80.49,4Z"/><path d="M65.19,18.29a1,1,0,0,1-1-.69l-1-3a1,1,0,0,1,.06-.76,1,1,0,0,1,.58-.5L81.23,7.7a1,1,0,0,1,1.26.64l1,3a1,1,0,0,1-.21,1l-3.68,4a1,1,0,0,1-.62.32L65.31,18.28ZM65.48,15l.41,1.24,12.46-1.5,3-3.32L80.9,9.91Z"/><path d="M47.67,33.26a1,1,0,0,1-1-1v-8.7a9.59,9.59,0,0,1,6.62-9.14l7.83-2.57a1,1,0,0,1,1.26.64,1,1,0,0,1-.63,1.26l-7.83,2.57a7.59,7.59,0,0,0-5.25,7.24v8.7A1,1,0,0,1,47.67,33.26Z"/><path d="M33.18,16a1.12,1.12,0,0,1-.31-.05l-21.46-7a1,1,0,0,1-.58-.5,1,1,0,0,1-.06-.76l1.17-3.55a3.07,3.07,0,0,1,3.86-2L33.34,7.89a3.06,3.06,0,0,1,1.95,3.86l-1.16,3.56A1,1,0,0,1,33.18,16ZM13,7.33l19.55,6.4.85-2.6a1.06,1.06,0,0,0-.68-1.34L15.18,4.05a1.07,1.07,0,0,0-1.34.68Z"/><path d="M30.14,18.29H30L16.38,16.64a1,1,0,0,1-.62-.32l-3.68-4a1,1,0,0,1-.21-1l1-3A1,1,0,0,1,14.1,7.7l17.32,5.67a1,1,0,0,1,.64,1.26l-1,3A1,1,0,0,1,30.14,18.29ZM17,14.7l12.46,1.5.4-1.24L14.43,9.91,14,11.38Z"/><path d="M47.67,33.26a1,1,0,0,1-1-1v-8.7a7.59,7.59,0,0,0-5.25-7.24l-7.83-2.57A1,1,0,0,1,33,12.49a1,1,0,0,1,1.26-.64L42,14.42a9.6,9.6,0,0,1,6.63,9.14v8.7A1,1,0,0,1,47.67,33.26Z"/><path d="M51.41,89.46H43.92a1,1,0,0,1-1-1V32.26a1,1,0,0,1,1-1h7.49a1,1,0,0,1,1,1v56.2A1,1,0,0,1,51.41,89.46Zm-6.49-2h5.49V33.26H44.92Z"/><path d="M65.21,94H30.13a1,1,0,0,1-.88-.54,1,1,0,0,1,.06-1l3.16-4.54a1,1,0,0,1,.82-.43H62.06a1,1,0,0,1,.82.43L66,92.43a1,1,0,0,1,.07,1A1,1,0,0,1,65.21,94ZM32,92H63.3l-1.77-2.54H33.81Z"/><path d="M79.4,78H66.66a5.88,5.88,0,0,1-5.87-5.88V48.26a5.87,5.87,0,0,1,5.87-5.87H79.4a5.88,5.88,0,0,1,5.88,5.87V72.13A5.89,5.89,0,0,1,79.4,78ZM66.66,44.39a3.87,3.87,0,0,0-3.87,3.87V72.13A3.88,3.88,0,0,0,66.66,76H79.4a3.88,3.88,0,0,0,3.88-3.88V48.26a3.88,3.88,0,0,0-3.88-3.87Z"/><path d="M73,66.39a5.34,5.34,0,0,1-4.65-8,1,1,0,0,1,1.74,1,3.34,3.34,0,1,0,5.82,0,1,1,0,0,1,1.74-1,5.34,5.34,0,0,1-4.65,8Z"/><path d="M73,59.41a1,1,0,0,1-1-1V55a1,1,0,1,1,2,0v3.4A1,1,0,0,1,73,59.41Z"/><path d="M64.85,32.52a1,1,0,0,1-.71-1.71,12.59,12.59,0,0,1,17.78,0,1,1,0,0,1,0,1.41,1,1,0,0,1-1.41,0,10.59,10.59,0,0,0-15,0A1,1,0,0,1,64.85,32.52Z"/><path d="M68.34,36a1,1,0,0,1-.71-.29,1,1,0,0,1,0-1.42,7.66,7.66,0,0,1,10.8,0A1,1,0,0,1,77,35.72a5.63,5.63,0,0,0-8,0A1,1,0,0,1,68.34,36Z"/><path d="M74.23,39.5a1,1,0,0,1-.71-.29.69.69,0,0,0-1,0,1,1,0,0,1-1.42-1.42,2.71,2.71,0,0,1,3.82,0,1,1,0,0,1,0,1.42A1,1,0,0,1,74.23,39.5Z"/></svg>